<svg width="22" height="21" viewBox="0 0 22 21" fill="none" xmlns="http://www.w3.org/2000/svg">
<path d="M7.36176 3.87345C7.36176 1.76549 5.71378 0.0566406 3.68088 0.0566406C1.64799 0.0566406 0 1.76549 0 3.87345C0 5.98142 1.64799 7.69026 3.68088 7.69026C5.71378 7.69026 7.36176 5.98142 7.36176 3.87345Z" fill="#32D3FE"/>
<path d="M21.425 3.87345C21.425 1.76549 19.777 0.0566406 17.7441 0.0566406C15.7112 0.0566406 14.0632 1.76549 14.0632 3.87345C14.0632 5.98142 15.7112 7.69026 17.7441 7.69026C19.777 7.69026 21.425 5.98142 21.425 3.87345Z" fill="#32D3FE"/>
<path d="M21.425 17.1269C21.425 15.0189 19.777 13.3101 17.7441 13.3101C15.7112 13.3101 14.0632 15.0189 14.0632 17.1269C14.0632 19.2348 15.7112 20.9437 17.7441 20.9437C19.777 20.9437 21.425 19.2348 21.425 17.1269Z" fill="#32D3FE"/>
<path d="M7.71797 17.0395C7.71797 14.9315 6.06998 13.2227 4.03708 13.2227C2.00419 13.2227 0.356201 14.9315 0.356201 17.0395C0.356201 19.1474 2.00419 20.8563 4.03708 20.8563C6.06998 20.8563 7.71797 19.1474 7.71797 17.0395Z" fill="#32D3FE"/>
</svg>
